<svg width="127" height="127" viewBox="0 0 127 127" fill="none" xmlns="http://www.w3.org/2000/svg">
<rect x="2" y="2" width="123" height="123" rx="22" fill="#00005B" stroke="#9999FF" stroke-width="4"/>
<path d="M68.9406 92H55.6866L51.4566 77.618H29.8366L25.5126 92H13.0106L33.3146 29.302H49.0126L68.9406 92ZM48.8246 67.56L40.7406 40.206H40.6466L32.5626 67.56H48.8246ZM113.138 66.244C113.138 67.184 113.044 70.286 112.95 71.696H84.2795V72.73C84.2795 78.182 87.0995 83.634 95.6535 83.634C101.012 83.634 105.994 82.224 110.13 80.25L110.694 89.744C107.122 91.812 101.294 93.316 94.3375 93.316C76.7595 93.316 72.2475 83.728 72.2475 68.688C72.2475 53.836 78.1695 43.684 94.1495 43.684C107.122 43.684 113.138 50.922 113.138 66.244ZM101.764 63.612C101.764 58.066 100.73 52.05 93.6795 52.05C86.9115 52.05 84.0915 57.878 84.0915 63.612H101.764Z" fill="#9999FF"/>
</svg>
