<svg width="127" height="127" viewBox="0 0 127 127" fill="none" xmlns="http://www.w3.org/2000/svg">
<rect x="2" y="2" width="123" height="123" rx="22" fill="#00005B" stroke="#9999FF" stroke-width="4"/>
<path d="M66.0013 92H52.7473L48.5173 77.618H26.8973L22.5733 92H10.0713L30.3753 29.302H46.0733L66.0013 92ZM45.8853 67.56L37.8013 40.206H37.7073L29.6233 67.56H45.8853ZM113.326 92H101.106V63.236C101.106 58.63 99.7899 54.4 93.2099 54.4C88.0399 54.4 83.5279 58.536 83.5279 63.048V92H71.3079V45H82.9639V50.734H83.1519C84.8439 48.478 90.1079 43.684 98.0979 43.684C107.31 43.684 113.326 48.384 113.326 59.476V92Z" fill="#9999FF"/>
</svg>
