<svg width="75" height="74" viewBox="0 0 75 74" fill="none" xmlns="http://www.w3.org/2000/svg">
<path d="M0 -3H-3V0V68V71H0H45.372C48.5925 71 51.6513 69.5887 53.7412 67.1384L68.1677 50.2245C69.8543 48.2472 70.7863 45.7365 70.7985 43.1375L71 0.0140186L71.0141 -3H68H0Z" fill="#F22DAE" stroke="black" stroke-width="6"/>
<path fill-rule="evenodd" clip-rule="evenodd" d="M50.9312 16.0269H42.6824C41.948 16.0269 41.1799 16.4186 40.6815 17.0471L15.3687 48.9708C14.3406 50.2675 14.9322 51.8429 16.4472 51.8429H24.6959C25.4303 51.8429 26.1985 51.4512 26.6968 50.8227L52.0096 18.8989C53.0378 17.6023 52.4462 16.0269 50.9312 16.0269ZM50.7006 17C51.4581 17 51.7539 17.7876 51.2398 18.436L25.927 50.3597C25.6778 50.674 25.2937 50.8698 24.9266 50.8698H16.6778C15.9203 50.8698 15.6245 50.0821 16.1386 49.4338L41.4514 17.51C41.7006 17.1958 42.0846 17 42.4518 17H50.7006Z" fill="black"/>
<path d="M16.1386 18.436C15.6245 17.7876 15.9203 17 16.6778 17H24.9266C25.2938 17 25.6778 17.1958 25.927 17.51L51.2398 49.4338C51.7539 50.0821 51.4581 50.8698 50.7006 50.8698H42.4518C42.0846 50.8698 41.7006 50.674 41.4514 50.3597L16.1386 18.436Z" fill="#05F3DB"/>
<path fill-rule="evenodd" clip-rule="evenodd" d="M16.4472 16.0269H24.696C25.4303 16.0269 26.1985 16.4186 26.6968 17.0471L52.0096 48.9708C53.0378 50.2675 52.4462 51.8429 50.9312 51.8429H42.6824C41.948 51.8429 41.1799 51.4512 40.6815 50.8227L15.3687 18.8989C14.3406 17.6023 14.9322 16.0269 16.4472 16.0269ZM16.6778 17C15.9203 17 15.6245 17.7876 16.1386 18.436L41.4514 50.3597C41.7006 50.674 42.0846 50.8698 42.4518 50.8698H50.7006C51.4581 50.8698 51.7539 50.0821 51.2398 49.4338L25.927 17.51C25.6778 17.1958 25.2938 17 24.9266 17H16.6778Z" fill="black"/>
<path d="M51.2398 18.436C51.7539 17.7876 51.4581 17 50.7006 17H42.4518C42.0846 17 41.7006 17.1958 41.4514 17.51L16.1386 49.4338C15.6245 50.0821 15.9203 50.8698 16.6778 50.8698H24.9266C25.2937 50.8698 25.6778 50.674 25.927 50.3597L51.2398 18.436Z" fill="#05F3DB"/>
</svg>
