<svg width="370" height="449" viewBox="0 0 370 449" fill="none" xmlns="http://www.w3.org/2000/svg">
<path d="M30.6187 39.9455L30.6377 39.9262L30.656 39.9061L41.5031 28.0283C44.2503 25.02 48.1363 23.3062 52.2102 23.3062H337.699C345.707 23.3062 352.199 29.798 352.199 37.8062V371.206C352.199 374.987 350.722 378.618 348.083 381.326L322.833 407.234L322.831 407.236L303.029 427.611C300.299 430.42 296.548 432.005 292.631 432.005H30.5671C22.559 432.005 16.0671 425.513 16.0671 417.505V60.6941C16.0671 56.8944 17.5587 53.2465 20.2208 50.5352L30.6187 39.9455Z" fill="#05F3DB" fill-opacity="0.8" stroke="black" stroke-width="3"/>
<path d="M291.614 425.38H184.403V441.891H291.614V425.38Z" fill="black" stroke="black"/>
<path d="M341.621 370.097L280.757 430.785L291.721 441.717L352.585 381.029L341.621 370.097Z" fill="black" stroke="black"/>
<ellipse cx="354.285" cy="367.592" rx="14.5839" ry="14.5453" transform="rotate(180 354.285 367.592)" fill="black" stroke="black"/>
<ellipse cx="186.373" cy="433.636" rx="14.5839" ry="14.5453" transform="rotate(180 186.373 433.636)" fill="black" stroke="black"/>
<path d="M291.614 427.738H184.403V439.532H291.614V427.738Z" fill="#F22DAE"/>
<path d="M343.348 370.835L282.813 431.195L291.174 439.532L351.709 379.172L343.348 370.835Z" fill="#F22DAE"/>
<ellipse cx="354.275" cy="367.564" rx="12.2512" ry="12.2157" transform="rotate(180 354.275 367.564)" fill="#F22DAE"/>
<ellipse cx="186.364" cy="433.608" rx="12.2512" ry="12.2157" transform="rotate(180 186.364 433.608)" fill="#F22DAE"/>
<path d="M27.5831 58.75L27.5831 183.417H8.33313L8.33313 58.75H27.5831Z" fill="black" stroke="black"/>
<path d="M68.8129 23.832L21.282 71.375L8.53651 58.6262L56.0674 11.0833L68.8129 23.832Z" fill="black" stroke="black"/>
<ellipse cx="16.9583" cy="16.9583" rx="16.9583" ry="16.9583" transform="matrix(0 1 1 0 44.0834 1)" fill="black" stroke="black"/>
<ellipse cx="16.9583" cy="16.9583" rx="16.9583" ry="16.9583" transform="matrix(0 1 1 0 1 164.167)" fill="black" stroke="black"/>
<path d="M24.8333 58.75L24.8333 183.417H11.0833L11.0833 58.75H24.8333Z" fill="#F22DAE"/>
<path d="M67.0043 22.7725L20.8037 68.9848L11.0834 59.2621L57.284 13.0497L67.0043 22.7725Z" fill="#F22DAE"/>
<ellipse cx="14.2459" cy="14.2423" rx="14.2459" ry="14.2423" transform="matrix(0 1 1 0 46.8318 3.72437)" fill="#F22DAE"/>
<ellipse cx="14.2459" cy="14.2423" rx="14.2459" ry="14.2423" transform="matrix(0 1 1 0 3.74817 166.891)" fill="#F22DAE"/>
</svg>
