<svg width="92" height="32" viewBox="0 0 92 32" fill="none" xmlns="http://www.w3.org/2000/svg">
<path d="M11.0329 3.81747L2.20175 24.5537C2.18568 24.5915 2.15774 24.6395 2.03715 24.8302C1.16865 26.2035 1.42116 27.7452 2.30052 28.8328C3.14951 29.8828 4.53828 30.5009 6.07482 30.5L76.8784 30.4607C78.1504 30.46 79.4322 30.0146 80.332 29.1379C80.6638 28.8146 80.8531 28.4502 80.9671 28.1825L89.7983 7.44626C89.8143 7.40853 89.8423 7.36053 89.9629 7.16985C90.8314 5.79648 90.5788 4.25484 89.6995 3.16724C88.8505 2.11721 87.4617 1.49915 85.9252 1.5L15.1216 1.53929C13.8497 1.54 12.5678 1.98538 11.668 2.86207C11.3362 3.18544 11.1469 3.5498 11.0329 3.81747Z" fill="#F22DAE" stroke="black" stroke-width="3"/>
<mask id="path-2-outside-1_745_29" maskUnits="userSpaceOnUse" x="29" y="8" width="36" height="16" fill="black">
<rect fill="white" x="29" y="8" width="36" height="16"/>
<path d="M40.0952 23H36.7322C32.8752 23 30.0252 19.96 30.0252 15.951C30.0252 11.885 32.8752 9.187 36.7322 9.187H40.0952C44.0852 9.187 46.8592 11.942 46.8592 15.951C46.8592 19.96 44.0282 23 40.0952 23ZM36.7322 20.587H40.0952C42.6412 20.587 44.4462 18.668 44.4462 16.065C44.4462 13.462 42.6412 11.6 40.0952 11.6H36.7322C34.2622 11.6 32.4382 13.443 32.4382 16.065C32.4382 18.668 34.2432 20.587 36.7322 20.587ZM61.3329 22.658L51.6239 12.892V23H49.3249V10.46C49.3249 9.567 49.7999 9.016 50.5599 9.016C50.9209 9.016 51.2249 9.149 51.5859 9.51L61.3329 19.181V9.073H63.6319V21.727C63.6319 22.639 63.1379 23.171 62.4349 23.171C62.0359 23.171 61.6749 23 61.3329 22.658Z"/>
</mask>
<path d="M40.0952 23H36.7322C32.8752 23 30.0252 19.96 30.0252 15.951C30.0252 11.885 32.8752 9.187 36.7322 9.187H40.0952C44.0852 9.187 46.8592 11.942 46.8592 15.951C46.8592 19.96 44.0282 23 40.0952 23ZM36.7322 20.587H40.0952C42.6412 20.587 44.4462 18.668 44.4462 16.065C44.4462 13.462 42.6412 11.6 40.0952 11.6H36.7322C34.2622 11.6 32.4382 13.443 32.4382 16.065C32.4382 18.668 34.2432 20.587 36.7322 20.587ZM61.3329 22.658L51.6239 12.892V23H49.3249V10.46C49.3249 9.567 49.7999 9.016 50.5599 9.016C50.9209 9.016 51.2249 9.149 51.5859 9.51L61.3329 19.181V9.073H63.6319V21.727C63.6319 22.639 63.1379 23.171 62.4349 23.171C62.0359 23.171 61.6749 23 61.3329 22.658Z" fill="#05F3DB"/>
<path d="M40.0952 22.5H36.7322V23.5H40.0952V22.5ZM36.7322 22.5C33.1765 22.5 30.5252 19.7097 30.5252 15.951H29.5252C29.5252 20.2103 32.5739 23.5 36.7322 23.5V22.5ZM30.5252 15.951C30.5252 14.0388 31.193 12.4798 32.2841 11.3996C33.3763 10.3182 34.9225 9.687 36.7322 9.687V8.687C34.6849 8.687 32.8776 9.40478 31.5805 10.6889C30.2824 11.9742 29.5252 13.7972 29.5252 15.951H30.5252ZM36.7322 9.687H40.0952V8.687H36.7322V9.687ZM40.0952 9.687C41.9723 9.687 43.5315 10.333 44.6203 11.4195C45.7088 12.5059 46.3592 14.0649 46.3592 15.951H47.3592C47.3592 13.8281 46.6226 12.0051 45.3267 10.7117C44.0309 9.41852 42.2081 8.687 40.0952 8.687V9.687ZM46.3592 15.951C46.3592 19.7078 43.7287 22.5 40.0952 22.5V23.5C44.3277 23.5 47.3592 20.2122 47.3592 15.951H46.3592ZM36.7322 21.087H40.0952V20.087H36.7322V21.087ZM40.0952 21.087C42.9384 21.087 44.9462 18.9226 44.9462 16.065H43.9462C43.9462 18.4134 42.344 20.087 40.0952 20.087V21.087ZM44.9462 16.065C44.9462 13.1989 42.9302 11.1 40.0952 11.1V12.1C42.3522 12.1 43.9462 13.7251 43.9462 16.065H44.9462ZM40.0952 11.1H36.7322V12.1H40.0952V11.1ZM36.7322 11.1C33.9718 11.1 31.9382 13.1814 31.9382 16.065H32.9382C32.9382 13.7046 34.5527 12.1 36.7322 12.1V11.1ZM31.9382 16.065C31.9382 18.9181 33.9417 21.087 36.7322 21.087V20.087C34.5447 20.087 32.9382 18.4179 32.9382 16.065H31.9382ZM61.3329 22.658L60.9783 23.0105L60.9793 23.0116L61.3329 22.658ZM51.6239 12.892L51.9785 12.5395L51.1239 11.6799V12.892H51.6239ZM51.6239 23V23.5H52.1239V23H51.6239ZM49.3249 23H48.8249V23.5H49.3249V23ZM51.5859 9.51L51.2323 9.86356L51.2337 9.86493L51.5859 9.51ZM61.3329 19.181L60.9807 19.5359L61.8329 20.3815V19.181H61.3329ZM61.3329 9.073V8.573H60.8329V9.073H61.3329ZM63.6319 9.073H64.1319V8.573H63.6319V9.073ZM61.6875 22.3055L51.9785 12.5395L51.2693 13.2445L60.9783 23.0105L61.6875 22.3055ZM51.1239 12.892V23H52.1239V12.892H51.1239ZM51.6239 22.5H49.3249V23.5H51.6239V22.5ZM49.8249 23V10.46H48.8249V23H49.8249ZM49.8249 10.46C49.8249 10.098 49.921 9.86391 50.037 9.72852C50.1455 9.60202 50.3092 9.516 50.5599 9.516V8.516C50.0506 8.516 49.5968 8.70547 49.2778 9.07773C48.9663 9.44109 48.8249 9.92902 48.8249 10.46H49.8249ZM50.5599 9.516C50.7558 9.516 50.9393 9.57052 51.2323 9.86355L51.9395 9.15645C51.5105 8.72748 51.086 8.516 50.5599 8.516V9.516ZM51.2337 9.86493L60.9807 19.5359L61.6851 18.8261L51.9381 9.15506L51.2337 9.86493ZM61.8329 19.181V9.073H60.8329V19.181H61.8329ZM61.3329 9.573H63.6319V8.573H61.3329V9.573ZM63.1319 9.073V21.727H64.1319V9.073H63.1319ZM63.1319 21.727C63.1319 22.0959 63.0324 22.3312 62.9171 22.4659C62.808 22.5934 62.6519 22.671 62.4349 22.671V23.671C62.9209 23.671 63.3633 23.4826 63.6769 23.1161C63.9844 22.7568 64.1319 22.2701 64.1319 21.727H63.1319ZM62.4349 22.671C62.199 22.671 61.9587 22.5767 61.6865 22.3044L60.9793 23.0116C61.3911 23.4233 61.8728 23.671 62.4349 23.671V22.671Z" fill="black" mask="url(#path-2-outside-1_745_29)"/>
</svg>
