<svg width="884" height="144" viewBox="0 0 884 144" fill="none" xmlns="http://www.w3.org/2000/svg">
<path d="M2 17.9995C2 9.16295 9.16344 1.99951 18 1.99951H866C874.837 1.99951 882 9.16296 882 17.9995V91.5344L857 116.767L832 142H18C9.16343 142 2 134.836 2 126V17.9995Z" fill="#05F3DB" fill-opacity="0.8"/>
<path d="M832 142L857 116.767L882 91.5344M832 142H18C9.16343 142 2 134.836 2 126V17.9995C2 9.16296 9.16344 1.99951 18 1.99951H866C874.837 1.99951 882 9.16296 882 17.9995V91.5344M832 142L882 91.5344" stroke="black" stroke-width="4"/>
</svg>
