<svg width="963" height="78" viewBox="0 0 963 78" fill="none" xmlns="http://www.w3.org/2000/svg">
<path d="M175 55.9995H926V76.9995H175V55.9995Z" fill="black" stroke="black"/>
<path d="M136.763 11.022L188.628 62.8738L174.72 76.778L122.855 24.9262L136.763 11.022Z" fill="black" stroke="black"/>
<path d="M0 8.99951L213 8.99951V29.9995L0 29.9995L0 8.99951Z" fill="black" stroke="black"/>
<circle cx="203.5" cy="19.4995" r="18.5" fill="black" stroke="black"/>
<path d="M906 55.9995H961.263L946.757 76.9995H906V55.9995Z" fill="black" stroke="black"/>
<path d="M175 59H915V74H175V59Z" fill="#F22DAE"/>
<path d="M135.607 13.0129L186.02 63.4136L175.413 74.0175L125 23.6168L135.607 13.0129Z" fill="#F22DAE"/>
<path d="M0 12.0132L211 12.0132V27.0094L0 27.0094L0 12.0132Z" fill="#F22DAE"/>
<ellipse cx="203.513" cy="19.5529" rx="15.541" ry="15.537" fill="#F22DAE"/>
<path d="M915 59.0017H955L944.5 73.9979H915V59.0017Z" fill="#F22DAE"/>
</svg>
