<svg width="75" height="74" viewBox="0 0 75 74" fill="none" xmlns="http://www.w3.org/2000/svg">
<path d="M0 -3H-3V0V68V71H0H45.372C48.5925 71 51.6513 69.5887 53.7412 67.1384L68.1677 50.2245C69.8543 48.2472 70.7863 45.7365 70.7985 43.1375L71 0.0140186L71.0141 -3H68H0Z" fill="#F22DAE" stroke="black" stroke-width="6"/>
<path d="M17.8519 27.5012C16.6928 27.5012 16.0503 26.4741 16.6387 25.5622L20.9464 18.8861C21.2679 18.3879 21.8832 18.0668 22.5164 18.0668L50.2606 18.0684C51.4197 18.0685 52.0623 19.0955 51.4738 20.0075L47.1661 26.6836C46.8447 27.1818 46.2293 27.5028 45.5961 27.5028L17.8519 27.5012Z" fill="#05F3DB" stroke="black"/>
<path d="M17.8519 38.9443C16.6928 38.9443 16.0503 37.9172 16.6387 37.0053L20.9464 30.3292C21.2679 29.831 21.8832 29.5099 22.5164 29.5099L50.2606 29.5115C51.4197 29.5116 52.0623 30.5386 51.4738 31.4506L47.1661 38.1267C46.8447 38.6249 46.2293 38.946 45.5961 38.9459L17.8519 38.9443Z" fill="#05F3DB" stroke="black"/>
<path d="M17.8519 50.5646C16.6928 50.5645 16.0503 49.5375 16.6387 48.6255L20.9464 41.9494C21.2679 41.4512 21.8832 41.1302 22.5164 41.1302L50.2606 41.1318C51.4197 41.1318 52.0623 42.1589 51.4738 43.0708L47.1661 49.7469C46.8447 50.2451 46.2293 50.5662 45.5961 50.5662L17.8519 50.5646Z" fill="#05F3DB" stroke="black"/>
</svg>
