<svg width="434" height="78" viewBox="0 0 434 78" fill="none" xmlns="http://www.w3.org/2000/svg">
<path d="M175 56H377V77H175V56Z" fill="black" stroke="black"/>
<path d="M136.763 11.0225L188.628 62.8743L174.72 76.7785L122.855 24.9267L136.763 11.0225Z" fill="black" stroke="black"/>
<path d="M0 9L213 9V30L0 30L0 9Z" fill="black" stroke="black"/>
<circle cx="203.5" cy="19.5" r="18.5" fill="black" stroke="black"/>
<path d="M377 56H432.263L417.757 77H377V56Z" fill="black" stroke="black"/>
<path d="M175 59H386V74H175V59Z" fill="#F22DAE"/>
<path d="M135.607 12.9954L186.02 63.3961L175.413 74L125 23.5993L135.607 12.9954Z" fill="#F22DAE"/>
<path d="M0 11.9957L211 11.9957V26.9919L0 26.9919L0 11.9957Z" fill="#F22DAE"/>
<ellipse cx="203.513" cy="19.5352" rx="15.541" ry="15.537" fill="#F22DAE"/>
<path d="M386 59H426L415.5 73.9962H386V59Z" fill="#F22DAE"/>
</svg>
