<svg width="127" height="127" viewBox="0 0 127 127" fill="none" xmlns="http://www.w3.org/2000/svg">
<rect x="2" y="2" width="123" height="123" rx="22" fill="#330000" stroke="#FF9A00" stroke-width="4"/>
<path d="M78.8088 92H65.5548L61.3248 77.618H39.7048L35.3808 92H22.8788L43.1828 29.302H58.8808L78.8088 92ZM58.6928 67.56L50.6088 40.206H50.5148L42.4308 67.56H58.6928ZM100.283 92H88.0634V45H100.283V92ZM101.693 32.122C101.693 36.352 98.3094 39.736 94.1734 39.736C89.9434 39.736 86.5594 36.352 86.5594 32.122C86.5594 27.986 89.9434 24.602 94.1734 24.602C98.3094 24.602 101.693 27.986 101.693 32.122Z" fill="#FF9A00"/>
</svg>
