<svg width="127" height="127" viewBox="0 0 127 127" fill="none" xmlns="http://www.w3.org/2000/svg">
<rect x="2" y="2" width="123" height="123" rx="22" fill="#49021F" stroke="#FF3366" stroke-width="4"/>
<path d="M43.4226 92H30.9206V29.302H43.4226V92ZM96.3042 92H85.3062L84.7422 86.266H84.6482C82.1102 89.838 78.1622 93.316 70.8302 93.316C57.7642 93.316 53.2522 83.258 53.2522 68.594C53.2522 54.494 58.1402 43.684 71.4882 43.684C78.9142 43.684 82.4862 47.256 84.0842 49.794H84.1782V25.73H96.3042V92ZM84.1782 72.448V64.928C84.1782 58.16 79.9482 53.554 75.1542 53.554C68.4802 53.554 65.7542 58.912 65.7542 65.68V71.602C65.7542 79.122 69.3262 83.446 74.7782 83.446C80.2302 83.446 84.1782 78.37 84.1782 72.448Z" fill="#FF3366"/>
</svg>
