<svg width="92" height="32" viewBox="0 0 92 32" fill="none" xmlns="http://www.w3.org/2000/svg">
<path d="M11.0329 3.81747L2.20175 24.5537C2.18568 24.5915 2.15774 24.6395 2.03715 24.8302C1.16865 26.2035 1.42116 27.7452 2.30052 28.8328C3.14951 29.8828 4.53828 30.5009 6.07482 30.5L76.8784 30.4607C78.1504 30.46 79.4322 30.0146 80.332 29.1379C80.6638 28.8146 80.8531 28.4502 80.9671 28.1825L89.7983 7.44626C89.8143 7.40853 89.8423 7.36053 89.9629 7.16985C90.8314 5.79648 90.5788 4.25484 89.6995 3.16724C88.8505 2.11721 87.4617 1.49915 85.9252 1.5L15.1216 1.53929C13.8497 1.54 12.5678 1.98538 11.668 2.86207C11.3362 3.18544 11.1469 3.5498 11.0329 3.81747Z" fill="#F22DAE" stroke="black" stroke-width="3"/>
<mask id="path-2-outside-1_750_41" maskUnits="userSpaceOnUse" x="24" y="8" width="47" height="16" fill="black">
<rect fill="white" x="24" y="8" width="47" height="16"/>
<path d="M34.7077 23H31.3447C27.4877 23 24.6377 19.96 24.6377 15.951C24.6377 11.885 27.4877 9.187 31.3447 9.187H34.7077C38.6977 9.187 41.4717 11.942 41.4717 15.951C41.4717 19.96 38.6407 23 34.7077 23ZM31.3447 20.587H34.7077C37.2537 20.587 39.0587 18.668 39.0587 16.065C39.0587 13.462 37.2537 11.6 34.7077 11.6H31.3447C28.8747 11.6 27.0507 13.443 27.0507 16.065C27.0507 18.668 28.8557 20.587 31.3447 20.587ZM46.3884 23H43.9944V9.187H55.7174V11.6H46.3884V23ZM55.1474 17.281H48.1554V15.172H55.1474V17.281ZM60.3548 23H57.9608V9.187H69.6838V11.6H60.3548V23ZM69.1138 17.281H62.1218V15.172H69.1138V17.281Z"/>
</mask>
<path d="M34.7077 23H31.3447C27.4877 23 24.6377 19.96 24.6377 15.951C24.6377 11.885 27.4877 9.187 31.3447 9.187H34.7077C38.6977 9.187 41.4717 11.942 41.4717 15.951C41.4717 19.96 38.6407 23 34.7077 23ZM31.3447 20.587H34.7077C37.2537 20.587 39.0587 18.668 39.0587 16.065C39.0587 13.462 37.2537 11.6 34.7077 11.6H31.3447C28.8747 11.6 27.0507 13.443 27.0507 16.065C27.0507 18.668 28.8557 20.587 31.3447 20.587ZM46.3884 23H43.9944V9.187H55.7174V11.6H46.3884V23ZM55.1474 17.281H48.1554V15.172H55.1474V17.281ZM60.3548 23H57.9608V9.187H69.6838V11.6H60.3548V23ZM69.1138 17.281H62.1218V15.172H69.1138V17.281Z" fill="#05F3DB"/>
<path d="M34.7077 22.5H31.3447V23.5H34.7077V22.5ZM31.3447 22.5C27.789 22.5 25.1377 19.7097 25.1377 15.951H24.1377C24.1377 20.2103 27.1864 23.5 31.3447 23.5V22.5ZM25.1377 15.951C25.1377 14.0388 25.8055 12.4798 26.8966 11.3996C27.9888 10.3182 29.535 9.687 31.3447 9.687V8.687C29.2974 8.687 27.4901 9.40478 26.193 10.6889C24.8949 11.9742 24.1377 13.7972 24.1377 15.951H25.1377ZM31.3447 9.687H34.7077V8.687H31.3447V9.687ZM34.7077 9.687C36.5847 9.687 38.144 10.333 39.2327 11.4195C40.3213 12.5059 40.9717 14.0649 40.9717 15.951H41.9717C41.9717 13.8281 41.235 12.0051 39.9391 10.7117C38.6433 9.41852 36.8206 8.687 34.7077 8.687V9.687ZM40.9717 15.951C40.9717 19.7078 38.3412 22.5 34.7077 22.5V23.5C38.9402 23.5 41.9717 20.2122 41.9717 15.951H40.9717ZM31.3447 21.087H34.7077V20.087H31.3447V21.087ZM34.7077 21.087C37.5509 21.087 39.5587 18.9226 39.5587 16.065H38.5587C38.5587 18.4134 36.9564 20.087 34.7077 20.087V21.087ZM39.5587 16.065C39.5587 13.1989 37.5426 11.1 34.7077 11.1V12.1C36.9647 12.1 38.5587 13.7251 38.5587 16.065H39.5587ZM34.7077 11.1H31.3447V12.1H34.7077V11.1ZM31.3447 11.1C28.5842 11.1 26.5507 13.1814 26.5507 16.065H27.5507C27.5507 13.7046 29.1651 12.1 31.3447 12.1V11.1ZM26.5507 16.065C26.5507 18.9181 28.5542 21.087 31.3447 21.087V20.087C29.1572 20.087 27.5507 18.4179 27.5507 16.065H26.5507ZM46.3884 23V23.5H46.8884V23H46.3884ZM43.9944 23H43.4944V23.5H43.9944V23ZM43.9944 9.187V8.687H43.4944V9.187H43.9944ZM55.7174 9.187H56.2174V8.687H55.7174V9.187ZM55.7174 11.6V12.1H56.2174V11.6H55.7174ZM46.3884 11.6V11.1H45.8884V11.6H46.3884ZM55.1474 17.281V17.781H55.6474V17.281H55.1474ZM48.1554 17.281H47.6554V17.781H48.1554V17.281ZM48.1554 15.172V14.672H47.6554V15.172H48.1554ZM55.1474 15.172H55.6474V14.672H55.1474V15.172ZM46.3884 22.5H43.9944V23.5H46.3884V22.5ZM44.4944 23V9.187H43.4944V23H44.4944ZM43.9944 9.687H55.7174V8.687H43.9944V9.687ZM55.2174 9.187V11.6H56.2174V9.187H55.2174ZM55.7174 11.1H46.3884V12.1H55.7174V11.1ZM45.8884 11.6V23H46.8884V11.6H45.8884ZM55.1474 16.781H48.1554V17.781H55.1474V16.781ZM48.6554 17.281V15.172H47.6554V17.281H48.6554ZM48.1554 15.672H55.1474V14.672H48.1554V15.672ZM54.6474 15.172V17.281H55.6474V15.172H54.6474ZM60.3548 23V23.5H60.8548V23H60.3548ZM57.9608 23H57.4608V23.5H57.9608V23ZM57.9608 9.187V8.687H57.4608V9.187H57.9608ZM69.6838 9.187H70.1838V8.687H69.6838V9.187ZM69.6838 11.6V12.1H70.1838V11.6H69.6838ZM60.3548 11.6V11.1H59.8548V11.6H60.3548ZM69.1138 17.281V17.781H69.6138V17.281H69.1138ZM62.1218 17.281H61.6218V17.781H62.1218V17.281ZM62.1218 15.172V14.672H61.6218V15.172H62.1218ZM69.1138 15.172H69.6138V14.672H69.1138V15.172ZM60.3548 22.5H57.9608V23.5H60.3548V22.5ZM58.4608 23V9.187H57.4608V23H58.4608ZM57.9608 9.687H69.6838V8.687H57.9608V9.687ZM69.1838 9.187V11.6H70.1838V9.187H69.1838ZM69.6838 11.1H60.3548V12.1H69.6838V11.1ZM59.8548 11.6V23H60.8548V11.6H59.8548ZM69.1138 16.781H62.1218V17.781H69.1138V16.781ZM62.6218 17.281V15.172H61.6218V17.281H62.6218ZM62.1218 15.672H69.1138V14.672H62.1218V15.672ZM68.6138 15.172V17.281H69.6138V15.172H68.6138Z" fill="black" mask="url(#path-2-outside-1_750_41)"/>
</svg>
