<svg width="127" height="127" viewBox="0 0 127 127" fill="none" xmlns="http://www.w3.org/2000/svg">
<rect x="2" y="2" width="123" height="123" rx="22" fill="#001E36" stroke="#31A8FF" stroke-width="4"/>
<path d="M66.6813 48.478C66.6813 62.296 58.5033 69.44 42.1473 69.44H35.7553V92H23.3473V29.302H43.9333C58.2213 29.302 66.6813 34.848 66.6813 48.478ZM54.0853 49.23C54.0853 42.65 50.9833 39.36 43.1813 39.36H35.7553V59.476H41.3013C51.1713 59.476 54.0853 55.34 54.0853 49.23ZM106.704 78.37C106.704 87.676 100.218 93.316 87.622 93.316C82.17 93.316 77.282 92.188 72.488 90.026L73.052 80.438C77.282 82.788 81.794 84.292 86.494 84.292C92.698 84.292 94.39 81.754 94.39 79.122C94.39 76.772 93.45 75.362 88.844 73.482C87.622 73.012 86.118 72.542 84.426 71.978C78.598 69.91 72.582 66.15 72.582 57.408C72.582 48.478 79.632 43.684 90.912 43.684C96.082 43.684 101.158 45.094 104.26 46.692L103.696 56.186C99.278 53.836 94.484 52.708 91.664 52.708C86.87 52.708 84.99 54.4 84.99 56.938C84.99 59.664 87.058 61.074 91.946 62.86L95.142 63.988C101.534 66.244 106.704 69.722 106.704 78.37Z" fill="#31A8FF"/>
</svg>
