<svg width="177" height="191" viewBox="0 0 177 191" fill="none" xmlns="http://www.w3.org/2000/svg">
<circle cx="97" cy="97" r="78" fill="#F22DAE" stroke="black" stroke-width="4"/>
<circle cx="97" cy="97" r="63.3846" fill="#E2FFFC" stroke="black" stroke-width="4"/>
<mask id="mask0_148_80" style="mask-type:alpha" maskUnits="userSpaceOnUse" x="3" y="0" width="94" height="97">
<path d="M3 0H97V97H3V0Z" fill="#D9D9D9"/>
</mask>
<g mask="url(#mask0_148_80)">
<circle cx="97" cy="97" r="78" fill="#05F3DB" stroke="black" stroke-width="4"/>
<circle cx="97" cy="97" r="63.3846" fill="#E2FFFC" stroke="black" stroke-width="4"/>
</g>
<path d="M99 34V19H95V34H99Z" fill="black" stroke="black"/>
<circle cx="25" cy="97" r="17" transform="rotate(-90 25 97)" fill="black" stroke="black"/>
<circle cx="25" cy="96.9999" r="14.3846" transform="rotate(-90 25 96.9999)" fill="#F22DAE"/>
<mask id="mask1_148_80" style="mask-type:alpha" maskUnits="userSpaceOnUse" x="0" y="109" width="97" height="82">
<path d="M0 191L22 111L33 109L97 191H0Z" fill="#D9D9D9"/>
</mask>
<g mask="url(#mask1_148_80)">
<circle cx="97" cy="97" r="78" transform="rotate(-90 97 97)" fill="#F22DAE" stroke="black" stroke-width="4"/>
<circle cx="97" cy="97" r="63.3846" transform="rotate(-90 97 97)" fill="#E2FFFC" stroke="black" stroke-width="4"/>
</g>
<path d="M77.0241 93H67.2141V90.714H77.0241C78.2481 90.714 78.9321 90.03 78.9321 89.004C78.9321 87.888 78.2481 87.312 77.0241 87.312H71.0121C68.5461 87.312 67.0161 85.746 67.0161 83.586C67.0161 81.48 68.4381 79.914 71.0481 79.914H80.4441V82.2H71.0481C70.0041 82.2 69.3921 82.812 69.3921 83.802C69.3921 84.792 70.0221 85.386 71.0301 85.386H77.0241C79.6701 85.386 81.0921 86.628 81.0921 89.166C81.0921 91.362 79.7601 93 77.0241 93ZM97.326 93H93.834L86.508 87.24C86.112 86.934 86.04 86.646 86.04 86.286C86.04 85.89 86.148 85.602 86.616 85.242L93.546 79.914H97.056L88.488 86.304L97.326 93ZM85.338 93H83.052V79.914H85.338V93ZM101.214 93H98.928V79.914H101.214V93ZM114.689 93H103.601V79.914H105.887V90.714H114.689V93ZM127.415 93H116.327V79.914H118.613V90.714H127.415V93ZM92.4564 108.34C90.5304 108.34 89.0724 106.81 89.0724 104.92C89.0724 102.994 90.5304 101.626 92.4564 101.626C94.3644 101.626 95.8584 102.994 95.8584 104.92C95.8584 106.81 94.3644 108.34 92.4564 108.34ZM94.7064 104.974C94.7064 103.714 93.8784 102.778 92.4564 102.778C91.0344 102.778 90.2064 103.714 90.2064 104.974C90.2064 106.234 91.0164 107.188 92.4564 107.188C93.8784 107.188 94.7064 106.234 94.7064 104.974ZM91.6284 116.206H90.0624L101.888 101.122H103.418L91.6284 116.206ZM101.528 115.27C99.6024 115.27 98.1444 113.74 98.1444 111.85C98.1444 109.924 99.6024 108.556 101.528 108.556C103.436 108.556 104.93 109.924 104.93 111.85C104.93 113.74 103.436 115.27 101.528 115.27ZM103.778 111.904C103.778 110.644 102.95 109.708 101.528 109.708C100.106 109.708 99.2784 110.644 99.2784 111.904C99.2784 113.164 100.088 114.118 101.528 114.118C102.95 114.118 103.778 113.164 103.778 111.904Z" fill="black"/>
</svg>
