<svg width="86" height="217" viewBox="0 0 86 217" fill="none" xmlns="http://www.w3.org/2000/svg">
<path d="M30 64L30 200H9L9 64L30 64Z" fill="black" stroke="black"/>
<path d="M74.9775 25.9077L23.1257 77.7728L9.22151 63.865L61.0734 12L74.9775 25.9077Z" fill="black" stroke="black"/>
<circle cx="18.5" cy="18.5" r="18.5" transform="matrix(0 1 1 0 48 1)" fill="black" stroke="black"/>
<circle cx="18.5" cy="18.5" r="18.5" transform="matrix(0 1 1 0 1 179)" fill="black" stroke="black"/>
<path d="M27 64L27 200H12L12 64H27Z" fill="#F22DAE"/>
<path d="M73.0046 24.7515L22.604 75.165L12.0001 64.5584L62.4007 14.1449L73.0046 24.7515Z" fill="#F22DAE"/>
<ellipse cx="15.541" cy="15.537" rx="15.541" ry="15.537" transform="matrix(0 1 1 0 50.998 3.97217)" fill="#F22DAE"/>
<ellipse cx="15.541" cy="15.537" rx="15.541" ry="15.537" transform="matrix(0 1 1 0 3.99805 181.972)" fill="#F22DAE"/>
</svg>
